<?xml version="1.0" standalone="no"?>
<!DOCTYPE svg PUBLIC "-//W3C//DTD SVG 20010904//EN"
 "http://www.w3.org/TR/2001/REC-SVG-20010904/DTD/svg10.dtd">
<svg version="1.0" xmlns="http://www.w3.org/2000/svg"
 width="600.000000pt" height="600.000000pt" viewBox="0 0 600.000000 600.000000"
 preserveAspectRatio="xMidYMid meet">

<g transform="translate(0.000000,600.000000) scale(0.100000,-0.100000)"
fill="#000000" stroke="none">
<path d="M2572 4599 c-436 -42 -816 -362 -1087 -914 -220 -450 -346 -995 -290
-1257 46 -219 212 -369 426 -385 77 -6 146 11 262 64 42 20 79 34 80 32 2 -2
27 -42 56 -89 157 -251 363 -472 536 -577 172 -104 329 -102 532 7 123 66 220
145 438 360 210 206 341 316 532 447 l102 70 98 -97 c84 -82 113 -104 193
-143 120 -59 192 -78 305 -78 249 0 400 140 383 356 -12 149 -136 292 -365
424 -105 59 -281 136 -405 176 l-86 29 -16 90 c-142 788 -597 1309 -1273 1456
-77 17 -296 43 -328 39 -5 -1 -47 -5 -93 -10z m326 -224 c111 -21 192 -49 297
-101 276 -137 516 -417 675 -788 48 -113 120 -325 120 -356 0 -15 -23 -18
-207 -24 -447 -15 -734 -81 -1078 -251 -184 -90 -336 -186 -489 -309 -53 -43
-99 -77 -101 -74 -2 2 -18 71 -34 153 -114 571 -85 1096 77 1425 37 77 62 110
127 176 124 125 219 162 416 163 66 1 152 -6 197 -14z m-1119 -676 c-29 -193
-32 -560 -5 -752 20 -146 61 -320 105 -450 l30 -88 -27 -10 c-119 -45 -279
-52 -359 -15 -108 51 -139 134 -130 350 14 328 135 693 334 1008 37 59 69 106
70 104 2 -2 -6 -68 -18 -147z m2241 -838 c108 -22 187 -48 261 -86 54 -27 129
-81 129 -94 0 -4 -30 -22 -67 -40 -168 -83 -417 -238 -588 -366 -122 -92 -232
-185 -404 -344 -193 -177 -282 -248 -361 -285 -58 -28 -75 -31 -155 -31 -83 0
-96 3 -160 34 -134 66 -284 248 -400 484 -38 78 -52 114 -45 123 18 21 222
160 355 241 319 195 601 319 848 373 124 27 441 22 587 -9z m759 -317 c38 -19
65 -43 97 -86 64 -87 64 -95 15 -139 -49 -44 -116 -69 -183 -69 -90 0 -171 48
-248 147 l-50 65 23 18 c27 21 98 58 146 75 62 23 140 18 200 -11z"/>
</g>
</svg>
