<?xml version="1.0" encoding="UTF-8"?>
<svg version="1.1" xmlns="http://www.w3.org/2000/svg" width="512" height="512">
<path d="M0 0 C168.96 0 337.92 0 512 0 C512 168.96 512 337.92 512 512 C343.04 512 174.08 512 0 512 C0 343.04 0 174.08 0 0 Z " fill="#EC2C34" transform="translate(0,0)"/>
<path d="M0 0 C0 100.98 0 201.96 0 306 C-168.96 306 -337.92 306 -512 306 C-512 274.65 -512 243.3 -512 211 C-490.22 209.02 -490.22 209.02 -468 207 C-459.38293964 206.01397995 -450.78411251 205.00607424 -442.1875 203.875 C-440.20256713 203.62036637 -438.21754006 203.36646608 -436.23242188 203.11328125 C-431.63837397 202.52542995 -427.04581884 201.92698438 -422.45397949 201.32214355 C-420.11396501 201.01496064 -417.77340139 200.71238625 -415.43261719 200.41113281 C-414.07876061 200.23514474 -412.72491837 200.05904629 -411.37109375 199.8828125 C-410.22697021 199.73473145 -409.08284668 199.58665039 -407.90405273 199.43408203 C-404.86608242 198.97998273 -401.98011243 198.30308991 -399.0234375 197.4921875 C-395.43055155 196.61824227 -391.76816781 196.1649004 -388.11328125 195.62109375 C-382.96473381 194.85069541 -377.82505993 194.02784744 -372.6875 193.1875 C-371.66495117 193.02040527 -370.64240234 192.85331055 -369.58886719 192.68115234 C-361.11949938 191.26172719 -352.73088257 189.53461815 -344.36987305 187.57495117 C-335.72601855 185.64964313 -326.73245537 183.89946835 -318.875 188.75 C-318.07449219 189.29527344 -317.27398437 189.84054687 -316.44921875 190.40234375 C-304.85645907 197.96444696 -289.22131289 199.06090284 -275.83056641 196.6015625 C-271.68193546 195.51339701 -267.85477487 193.85600272 -264 192 C-263.06285156 191.56558594 -262.12570312 191.13117188 -261.16015625 190.68359375 C-249.57282183 184.84836508 -239.87135752 176.14577435 -230.55859375 167.25 C-228 165 -228 165 -225.78515625 163.9375 C-223.44172289 162.7068129 -223.11073016 161.35864214 -222 159 C-220.30078125 157.32421875 -220.30078125 157.32421875 -218.3125 155.6875 C-215.63866994 153.43055742 -213.11110797 151.14812811 -210.6875 148.625 C-207.01423836 144.89356453 -203.00817627 141.64825343 -198.9296875 138.37109375 C-196.0553283 136.04477904 -193.24851404 133.65221006 -190.4375 131.25 C-180.36715789 122.85368879 -169.63645952 115.17749853 -158.625 108.0625 C-157.62726563 107.41410156 -156.62953125 106.76570313 -155.6015625 106.09765625 C-153 105 -153 105 -150.9140625 105.515625 C-148.53608036 107.35977441 -146.70163487 109.39538207 -144.75 111.6875 C-131.13356457 127.12538356 -114.60858924 135.50774667 -94.00390625 137.25390625 C-82.91624633 137.70087303 -72.43568059 134.31847913 -64 127 C-56.04288179 118.49999848 -53.28536929 111.49510064 -53.515625 99.8671875 C-55.09651503 87.24556548 -63.72239608 78.78121619 -73 71 C-70.12555907 67.96586791 -67.70858653 65.85429327 -64 64 C-63.67 63.01 -63.34 62.02 -63 61 C-61.64453125 59.6328125 -61.64453125 59.6328125 -59.8125 58.125 C-55.63302877 54.57855087 -51.58556658 50.90905415 -47.5625 47.1875 C-46.62144409 46.32439209 -46.62144409 46.32439209 -45.66137695 45.44384766 C-45.07316162 44.89905762 -44.48494629 44.35426758 -43.87890625 43.79296875 C-43.3485376 43.3033667 -42.81816895 42.81376465 -42.27172852 42.30932617 C-40.87639105 41.00476246 -40.87639105 41.00476246 -40 39 C-39.34 39 -38.68 39 -38 39 C-38 38.34 -38 37.68 -38 37 C-36.49609375 35.5546875 -36.49609375 35.5546875 -34.4375 33.875 C-30.68243387 30.70687138 -27.54734343 27.30569764 -24.4453125 23.50390625 C-23.96835937 23.00761719 -23.49140625 22.51132813 -23 22 C-22.34 22 -21.68 22 -21 22 C-21 21.34 -21 20.68 -21 20 C-20.34 20 -19.68 20 -19 20 C-19 19.34 -19 18.68 -19 18 C-18.34 18 -17.68 18 -17 18 C-16.73646729 17.4112207 -16.47293457 16.82244141 -16.20141602 16.21582031 C-14.95007867 13.90792806 -13.63498332 12.39111624 -11.77734375 10.546875 C-11.15666016 9.928125 -10.53597656 9.309375 -9.89648438 8.671875 C-9.25001953 8.03765625 -8.60355469 7.4034375 -7.9375 6.75 C-6.96200195 5.77546875 -6.96200195 5.77546875 -5.96679688 4.78125 C-1.14034598 0 -1.14034598 0 0 0 Z " fill="#E00F18" transform="translate(512,206)"/>
<path d="M0 0 C0.99061935 0.00223572 0.99061935 0.00223572 2.00125122 0.0045166 C12.4943269 0.04703273 22.18850586 0.79302597 32.375 3.3125 C34.25058594 3.73015625 34.25058594 3.73015625 36.1640625 4.15625 C55.29041137 8.74974165 73.94154582 18.17957367 89.375 30.3125 C90.2309375 30.96476562 91.086875 31.61703125 91.96875 32.2890625 C125.97811064 58.99641336 150.44934934 99.49513273 157.375 142.3125 C157.75709164 145.97546026 158.07944703 149.64161659 158.375 153.3125 C159.62410156 153.70179688 160.87320312 154.09109375 162.16015625 154.4921875 C186.12694663 162.12486397 209.40557795 171.7730364 229.375 187.3125 C230.9528125 188.4571875 230.9528125 188.4571875 232.5625 189.625 C240.80498005 197.5011476 246.41492885 206.13472298 246.875 217.625 C246.65107374 227.49722734 243.05145871 234.35111567 236.3828125 241.49609375 C227.58042772 249.45934068 217.17309898 252.90121334 205.43359375 252.52734375 C183.28291322 250.97142111 166.09762181 240.59972099 151.375 224.3125 C150.35283818 222.99607948 149.34283254 221.66936327 148.375 220.3125 C135.25912362 224.21077658 124.02333121 235.000465 113.375 243.3125 C112.44558594 244.03566406 111.51617187 244.75882813 110.55859375 245.50390625 C100.42388816 253.50147458 90.63069662 261.8317863 81.609375 271.07421875 C78.94987059 273.73837264 76.14332145 276.17534083 73.28125 278.6171875 C71.33300994 280.34984362 69.55076254 282.17780361 67.75 284.0625 C52.58977147 299.34116782 32.87667383 312.68342659 10.8125 312.875 C-11.51313792 312.56136518 -29.03205036 300.47805637 -44.24145508 285.04956055 C-73.625 254.30634076 -73.625 254.30634076 -73.625 242.3125 C-74.85863281 242.81910156 -74.85863281 242.81910156 -76.1171875 243.3359375 C-90.37042013 249.03064707 -107.41792866 252.85499849 -122.453125 247.359375 C-132.65564994 242.44161118 -140.53451874 234.84984328 -145.6875 224.75 C-146.17347656 223.82058594 -146.65945312 222.89117187 -147.16015625 221.93359375 C-151.36969597 211.52761156 -152.19609179 201.36313088 -152.125 190.25 C-152.12323761 189.5105011 -152.12147522 188.7710022 -152.11965942 188.00909424 C-152.04264614 173.39303125 -150.15787154 159.51490955 -146.625 145.3125 C-146.37331055 144.29542969 -146.12162109 143.27835938 -145.86230469 142.23046875 C-138.24062212 112.35730788 -125.95952773 81.5855632 -106.625 57.3125 C-105.84253906 56.3225 -105.06007812 55.3325 -104.25390625 54.3125 C-102.07951976 51.61376736 -99.86582152 48.95616584 -97.625 46.3125 C-97.01914063 45.58289063 -96.41328125 44.85328125 -95.7890625 44.1015625 C-91.7650683 39.34924355 -87.44677854 35.24732931 -82.625 31.3125 C-81.68914062 30.5390625 -80.75328125 29.765625 -79.7890625 28.96875 C-71.61894339 22.36594409 -62.93931897 17.14205366 -53.625 12.3125 C-52.20767578 11.57193359 -52.20767578 11.57193359 -50.76171875 10.81640625 C-45.38102734 8.19546248 -39.84496717 6.33966827 -34.125 4.625 C-33.44896729 4.42229492 -32.77293457 4.21958984 -32.07641602 4.01074219 C-21.36802451 0.94791468 -11.13329816 -0.04796099 0 0 Z " fill="#FDFCFC" transform="translate(212.625,91.6875)"/>
<path d="M0 0 C0.75788818 -0.00040283 1.51577637 -0.00080566 2.29663086 -0.0012207 C14.37671154 0.03579169 25.28358418 0.97638482 36.625 5.4375 C37.74334229 5.86361572 37.74334229 5.86361572 38.88427734 6.29833984 C54.78556684 12.48646031 68.74882576 21.29894096 81.625 32.4375 C82.70693811 33.29343326 83.79002217 34.14792317 84.875 35 C87.79109809 37.58472331 90.26881623 40.32511914 92.78515625 43.29296875 C93.99070384 44.69816116 95.22724984 46.07746904 96.49609375 47.42578125 C113.03630554 65.09751658 131.70650276 95.51668742 131.75 120.4375 C131.70875 121.4275 131.6675 122.4175 131.625 123.4375 C130.37460937 123.27765625 129.12421875 123.1178125 127.8359375 122.953125 C119.33260926 122.11026434 110.78686353 122.19414249 102.25 122.1875 C101.35449432 122.18649292 100.45898865 122.18548584 99.53634644 122.18444824 C86.64774483 122.1942667 74.2488715 122.63971065 61.625 125.4375 C60.28940342 125.69707284 58.9534641 125.9548884 57.6171875 126.2109375 C23.16383665 133.19748511 -8.80984021 148.93578126 -37.03491211 169.60742188 C-42.28216914 173.43610041 -47.68790238 177.01001244 -53.125 180.5625 C-54.44963257 181.43455078 -54.44963257 181.43455078 -55.80102539 182.32421875 C-56.62465576 182.85917969 -57.44828613 183.39414062 -58.296875 183.9453125 C-59.03518555 184.42629395 -59.77349609 184.90727539 -60.53417969 185.40283203 C-62.375 186.4375 -62.375 186.4375 -64.375 186.4375 C-67.11568408 177.74080416 -69.2022322 168.98306651 -71.0625 160.0625 C-71.38383911 158.53012695 -71.38383911 158.53012695 -71.71166992 156.96679688 C-73.57460075 147.87266503 -74.53618473 139.20256164 -74.578125 129.9296875 C-74.58382507 128.92777374 -74.58952515 127.92585999 -74.59539795 126.89358521 C-74.60481057 124.77395671 -74.611367 122.65431383 -74.61523438 120.53466797 C-74.62482425 117.37048867 -74.65583502 114.20699279 -74.6875 111.04296875 C-74.86733619 76.58750014 -68.9601155 41.69903687 -44.6640625 15.69140625 C-31.38418321 2.61548415 -18.07932044 -0.00980547 0 0 Z " fill="#EA2D34" transform="translate(214.375,115.5625)"/>
<path d="M0 0 C1.04027344 0.20496094 2.08054687 0.40992188 3.15234375 0.62109375 C9.93328823 2.15227476 16.52295197 4.4037017 23.125 6.5625 C24.06335693 6.86768555 25.00171387 7.17287109 25.96850586 7.48730469 C26.84772705 7.7815332 27.72694824 8.07576172 28.6328125 8.37890625 C29.82221436 8.77444702 29.82221436 8.77444702 31.03564453 9.17797852 C33 10 33 10 35 12 C33.84757813 12.42539062 32.69515625 12.85078125 31.5078125 13.2890625 C2.09810579 24.34835107 -23.05258576 41.95229351 -47 62 C-47.61891113 62.51449707 -48.23782227 63.02899414 -48.87548828 63.55908203 C-56.11496427 69.58910816 -62.96807856 75.82607725 -69.5625 82.5546875 C-72.20241317 85.20306193 -74.94607031 87.65017545 -77.796875 90.06640625 C-79.54466428 91.60037024 -81.22099342 93.16117062 -82.890625 94.77734375 C-94.96243472 106.39427906 -109.71593734 118.5115625 -127.296875 118.203125 C-141.23580801 117.15569073 -152.50483291 107.58117404 -162 98 C-163.33462467 96.33436723 -164.66791665 94.66766589 -166 93 C-166.79535156 92.22011719 -167.59070313 91.44023437 -168.41015625 90.63671875 C-171.42739121 87.56487321 -173.91796007 84.29462544 -176.4375 80.8125 C-177.15546753 79.82491699 -177.15546753 79.82491699 -177.88793945 78.81738281 C-188 64.76780691 -188 64.76780691 -188 60 C-186.43383789 58.74829102 -186.43383789 58.74829102 -184.22265625 57.50390625 C-183.00050415 56.79911133 -183.00050415 56.79911133 -181.75366211 56.08007812 C-180.42153687 55.32887695 -180.42153687 55.32887695 -179.0625 54.5625 C-172.30332952 50.63886352 -165.76590614 46.5875457 -159.4375 42 C-131.05002865 21.56382697 -101.486195 6.90830335 -67 0 C-66.24154785 -0.16226074 -65.4830957 -0.32452148 -64.70166016 -0.49169922 C-43.48733951 -4.96345835 -21.18122994 -4.32365563 0 0 Z " fill="#E62D34" transform="translate(348,263)"/>
<path d="M0 0 C1.44114975 2.8822995 0.31753954 4.79485625 -0.53833008 7.75830078 C-12.48847587 49.59815941 -10.65529625 102.91186296 4.265625 143.71484375 C5 146 5 146 5 149 C2.9170757 149.64715133 0.83364461 150.29267166 -1.25 150.9375 C-2.99023438 151.47697266 -2.99023438 151.47697266 -4.765625 152.02734375 C-12.40084856 154.32344359 -19.59093884 155.34079465 -27.15234375 152.09375 C-33.82313179 148.14486913 -36.84120569 141.16276881 -39 134 C-42.2449403 119.68787922 -40.67761688 103.18298448 -37.44873047 88.98144531 C-37.00011892 87.00052512 -36.59337724 85.01429019 -36.19140625 83.0234375 C-34.37418955 74.3783957 -31.82860454 66.01114697 -29.0625 57.625 C-28.73870361 56.63878662 -28.41490723 55.65257324 -28.08129883 54.63647461 C-25.79712427 47.87919575 -23.06867817 41.43631424 -20 35 C-19.66943604 34.3002002 -19.33887207 33.60040039 -18.99829102 32.87939453 C-13.5869085 21.55124169 -7.77686243 9.91120638 0 0 Z " fill="#E72E35" transform="translate(124,164)"/>
<path d="M0 0 C2.46832062 1.90983191 4.43810614 4.0240825 6.49609375 6.37109375 C7.26050781 7.23476563 8.02492188 8.0984375 8.8125 8.98828125 C10.60540951 11.10807482 12.30038382 13.25238682 13.93359375 15.49609375 C13.03898437 16.00398438 12.144375 16.511875 11.22265625 17.03515625 C10.00116227 17.7302231 8.77981873 18.42555438 7.55859375 19.12109375 C6.92171631 19.48356201 6.28483887 19.84603027 5.62866211 20.21948242 C1.88127134 22.35970397 -1.82527714 24.55138238 -5.50390625 26.80859375 C-9.26590725 29.09046321 -13.00308452 30.82296127 -17.06640625 32.49609375 C-17.85015625 32.99109375 -18.63390625 33.48609375 -19.44140625 33.99609375 C-21.75024888 35.31543239 -23.67275867 36.08134687 -26.18359375 36.87890625 C-30.79626073 38.38459066 -35.30402004 40.09038552 -39.81640625 41.87109375 C-40.59064941 42.17273438 -41.36489258 42.474375 -42.16259766 42.78515625 C-45.78017429 44.19543597 -49.38900047 45.62209176 -52.98046875 47.09765625 C-54.12257813 47.55914062 -55.2646875 48.020625 -56.44140625 48.49609375 C-57.43914062 48.90859375 -58.436875 49.32109375 -59.46484375 49.74609375 C-62.19028583 50.53180678 -63.45085266 50.48777284 -66.06640625 49.49609375 C-60.28443104 43.48835812 -54.41000613 37.96267552 -47.890625 32.76171875 C-45.04414524 30.47823568 -42.2771608 28.11770454 -39.50390625 25.74609375 C-29.43356414 17.34978254 -18.70286577 9.67359228 -7.69140625 2.55859375 C-6.69367188 1.91019531 -5.6959375 1.26179688 -4.66796875 0.59375 C-2.06640625 -0.50390625 -2.06640625 -0.50390625 0 0 Z " fill="#E42D33" transform="translate(361.06640625,311.50390625)"/>
<path d="M0 0 C0.76046631 -0.01764404 1.52093262 -0.03528809 2.30444336 -0.0534668 C9.70623837 -0.0445869 15.33994338 2.13575725 20.8125 7.3125 C23.66809405 10.69412453 24.78117563 12.41975556 24.9375 16.875 C23.43684995 21.46031959 21.76873342 22.62226127 17.8125 25.3125 C8.90379596 28.28206801 -1.01495261 26.88839296 -9.33203125 22.9375 C-16.17353211 19.0441151 -23.12602078 14.42118182 -28.1875 8.3125 C-28.1875 7.3225 -28.1875 6.3325 -28.1875 5.3125 C-18.74723539 1.89211427 -10.04166066 0.13337296 0 0 Z " fill="#E2121B" transform="translate(411.1875,293.6875)"/>
<path d="M0 0 C0.33 0 0.66 0 1 0 C1 19.14 1 38.28 1 58 C-17.81 58 -36.62 58 -56 58 C-56 57.67 -56 57.34 -56 57 C-55.319375 56.87625 -54.63875 56.7525 -53.9375 56.625 C-35.22912006 52.64449363 -20.47968273 42.58676689 -9.6796875 26.8125 C-4.67779526 18.43723858 -2.06638136 9.47511452 0 0 Z " fill="#FDFCFC" transform="translate(511,454)"/>
<path d="M0 0 C19.47 0 38.94 0 59 0 C59 19.8 59 39.6 59 60 C58.67 60 58.34 60 58 60 C57.91363281 59.27296875 57.82726562 58.5459375 57.73828125 57.796875 C55.18557071 39.52977203 45.99750917 24.36028579 31.4765625 13.03125 C22.22823687 6.69906308 11.15412802 2.2425583 0 1 C0 0.67 0 0.34 0 0 Z " fill="#FEFCFC" transform="translate(453,0)"/>
<path d="M0 0 C2 4 2 4 2.625 7.75 C6.19269869 24.2812451 17.34956007 37.85755548 31.046875 47.25 C39.45398328 52.23199009 48.29923551 55.70358447 58 57 C58 57.33 58 57.66 58 58 C38.86 58 19.72 58 0 58 C0 38.86 0 19.72 0 0 Z " fill="#FDFCFB" transform="translate(0,454)"/>
<path d="M0 0 C19.8 0 39.6 0 60 0 C60 0.33 60 0.66 60 1 C59.27296875 1.08636719 58.5459375 1.17273438 57.796875 1.26171875 C40.73904129 3.64544167 26.11526374 11.81678022 15 25 C7.47222475 35.27475289 1.77175109 47.13748186 1 60 C0.67 60 0.34 60 0 60 C0 40.2 0 20.4 0 0 Z " fill="#FEFCFC" transform="translate(0,0)"/>
<path d="M0 0 C-3.17005176 2.5438687 -6.35354842 5.06788894 -9.5625 7.5625 C-10.30628906 8.14128906 -11.05007813 8.72007812 -11.81640625 9.31640625 C-12.53699219 9.87199219 -13.25757813 10.42757813 -14 11 C-14.71027344 11.56589844 -15.42054688 12.13179688 -16.15234375 12.71484375 C-18 14 -18 14 -20 14 C-20 14.66 -20 15.32 -20 16 C-20 17.33333333 -20 18.66666667 -20 20 C-19.34 20 -18.68 20 -18 20 C-18.33 20.66 -18.66 21.32 -19 22 C-32.80159824 13.78892257 -32.80159824 13.78892257 -37 8 C-37 7.01 -37 6.02 -37 5 C-24.45335682 0.45411479 -13.23721402 -0.25955322 0 0 Z " fill="#E22D34" transform="translate(420,294)"/>
<path d="M0 0 C1.65 3.3 3.3 6.6 5 10 C-1.625 10.25 -1.625 10.25 -5 8 C-7.15274948 8.30840599 -7.15274948 8.30840599 -9 9 C-9.33 8.01 -9.66 7.02 -10 6 C-10.33 6.66 -10.66 7.32 -11 8 C-14.96 7.67 -18.92 7.34 -23 7 C-23 6.67 -23 6.34 -23 6 C-21.90300781 5.73445313 -20.80601563 5.46890625 -19.67578125 5.1953125 C-18.22130753 4.83873185 -16.76688302 4.4819504 -15.3125 4.125 C-14.59126953 3.95097656 -13.87003906 3.77695312 -13.12695312 3.59765625 C-8.89122416 2.55322993 -4.25933922 0 0 0 Z " fill="#DE363D" transform="translate(139,334)"/>
<path d="M0 0 C6.42347265 1.6425928 12.76179293 3.50284367 19.0625 5.5625 C19.71742432 5.77221436 20.37234863 5.98192871 21.04711914 6.19799805 C23.93668515 7.15714766 25.81682468 7.81682468 28 10 C26.70990357 10.50403768 25.41786211 11.00309926 24.125 11.5 C23.40570313 11.7784375 22.68640625 12.056875 21.9453125 12.34375 C20 13 20 13 18 13 C18 12.01 18 11.02 18 10 C18.66 10 19.32 10 20 10 C20 9.34 20 8.68 20 8 C19.13375 8.2475 18.2675 8.495 17.375 8.75 C12.96942785 9.07633868 11.59430952 7.42065744 8 5 C4.41656024 4.83322718 4.41656024 4.83322718 1 5 C-1.4375 4 -1.4375 4 -3 3 C-2.01 2.01 -1.02 1.02 0 0 Z " fill="#DF343B" transform="translate(355,265)"/>
<path d="M0 0 C0.33 0.66 0.66 1.32 1 2 C-0.25 5.5625 -0.25 5.5625 -2 9 C-2.99 9.33 -3.98 9.66 -5 10 C-5 9.34 -5 8.68 -5 8 C-5.66 8 -6.32 8 -7 8 C-7.144375 8.61875 -7.28875 9.2375 -7.4375 9.875 C-8 12 -8 12 -9 14 C-8.34 14.33 -7.68 14.66 -7 15 C-13.96428571 18.34821429 -13.96428571 18.34821429 -18 17 C-12.19539034 11.08833812 -6.33480354 5.34388455 0 0 Z " fill="#DD3037" transform="translate(313,344)"/>
<path d="M0 0 C1.47854179 2.95708358 0.52005822 4.89544685 -0.25 8.0625 C-0.50265625 9.14660156 -0.7553125 10.23070312 -1.015625 11.34765625 C-1.34046875 12.22292969 -1.6653125 13.09820312 -2 14 C-2.99 14.33 -3.98 14.66 -5 15 C-5.99 16.485 -5.99 16.485 -7 18 C-7.66 18 -8.32 18 -9 18 C-9 18.66 -9 19.32 -9 20 C-9.66 20 -10.32 20 -11 20 C-11 20.66 -11 21.32 -11 22 C-11.66 21.67 -12.32 21.34 -13 21 C-11.58898467 18.4342435 -10.17145884 15.87246271 -8.75 13.3125 C-8.35425781 12.59126953 -7.95851563 11.87003906 -7.55078125 11.12695312 C-5.31757072 7.11815718 -3.00696644 3.49663299 0 0 Z " fill="#E2343B" transform="translate(124,164)"/>
<path d="M0 0 C6.93 2.97 6.93 2.97 14 6 C14 6.66 14 7.32 14 8 C8.97703996 9.13016601 5.02125926 8.77916092 0 8 C0 5.36 0 2.72 0 0 Z " fill="#DB161E" transform="translate(386,334)"/>
<path d="M0 0 C3.85764352 4.68428141 7.44703168 9.46856865 10 15 C1.79746835 13.17721519 1.79746835 13.17721519 -0.3125 10.0625 C-1.49001763 6.5299471 -0.76706994 3.54769846 0 0 Z " fill="#E03138" transform="translate(66,315)"/>
<path d="M0 0 C2.97 0.33 5.94 0.66 9 1 C6.35677909 4.03192987 4.76712314 5.80445881 0.8125 6.8125 C-0.78932807 6.91928854 -2.39461626 7 -4 7 C-4 6.34 -4 5.68 -4 5 C-4.99 4.67 -5.98 4.34 -7 4 C-7 3.34 -7 2.68 -7 2 C-3.535 1.505 -3.535 1.505 0 1 C0 0.67 0 0.34 0 0 Z " fill="#F12C36" transform="translate(455,1)"/>
<path d="M0 0 C1.41791408 0.45445964 2.83428046 0.91374944 4.25 1.375 C5.43335937 1.75785156 5.43335937 1.75785156 6.640625 2.1484375 C8.86627958 2.95173667 10.90931672 3.89711662 13 5 C12 7 12 7 9.9375 7.75 C5.91732042 8.09214294 2.87188624 7.11562824 -1 6 C-0.67 4.02 -0.34 2.04 0 0 Z " fill="#DC2E35" transform="translate(84,336)"/>
<path d="M0 0 C8.25 0.33 16.5 0.66 25 1 C24.67 1.66 24.34 2.32 24 3 C17.07 2.505 17.07 2.505 10 2 C10 2.66 10 3.32 10 4 C7.69 4.33 5.38 4.66 3 5 C2.87625 4.360625 2.7525 3.72125 2.625 3.0625 C2.315625 2.0415625 2.315625 2.0415625 2 1 C1.34 0.67 0.68 0.34 0 0 Z " fill="#DB2D33" transform="translate(206,403)"/>
<path d="M0 0 C0.66 0.33 1.32 0.66 2 1 C-0.52777778 4.79166667 -0.52777778 4.79166667 -3.125 5.9375 C-5.29719002 6.87895793 -5.29719002 6.87895793 -5.75 9.625 C-5.8325 10.40875 -5.915 11.1925 -6 12 C-7.98 12 -9.96 12 -12 12 C-12.33 10.68 -12.66 9.36 -13 8 C-10.880788 6.63594382 -8.75551882 5.28368225 -6.625 3.9375 C-6.02171875 3.54755859 -5.4184375 3.15761719 -4.796875 2.75585938 C-3.23507443 1.77539568 -1.62007786 0.88083925 0 0 Z " fill="#DC3038" transform="translate(173,315)"/>
<path d="M0 0 C2.39073149 2.93189994 3.84107307 5.72143288 5.1875 9.25 C5.53167969 10.14203125 5.87585938 11.0340625 6.23046875 11.953125 C6.48441406 12.62859375 6.73835938 13.3040625 7 14 C6.01 14 5.02 14 4 14 C4 13.34 4 12.68 4 12 C2.68 12.33 1.36 12.66 0 13 C-1.125 7.25 -1.125 7.25 0 5 C0.0396713 3.33380554 0.04384447 1.66608987 0 0 Z " fill="#E4353C" transform="translate(331,194)"/>
<path d="M0 0 C2.03219488 3.40351338 2.36891039 6.3232927 2.625 10.25 C2.69976562 11.32765625 2.77453125 12.4053125 2.8515625 13.515625 C2.92503906 14.74539062 2.92503906 14.74539062 3 16 C1 16 -1 16 -3 16 C-3.6875 13.75 -3.6875 13.75 -4 11 C-3.01439389 9.65599167 -2.01241685 8.32392972 -1 7 C-0.27518916 3.34725531 -0.27518916 3.34725531 0 0 Z " fill="#EF373F" transform="translate(509,48)"/>
<path d="M0 0 C0.66 0.33 1.32 0.66 2 1 C1.23883449 2.15227823 0.46567307 3.2966386 -0.3125 4.4375 C-0.74175781 5.07558594 -1.17101562 5.71367187 -1.61328125 6.37109375 C-3 8 -3 8 -6 9 C-6.99 9.495 -6.99 9.495 -8 10 C-8 10.66 -8 11.32 -8 12 C-10.31 12.33 -12.62 12.66 -15 13 C-10.43369266 8.12927217 -5.25023461 4.10843602 0 0 Z " fill="#DD333B" transform="translate(336,326)"/>
<path d="M0 0 C2.32590854 3.63423209 2.16265833 6.77088331 2 11 C-1.3 10.67 -4.6 10.34 -8 10 C-7.34 9.01 -6.68 8.02 -6 7 C-2.375 6.8125 -2.375 6.8125 1 7 C0.01 5.68 -0.98 4.36 -2 3 C-1.34 2.01 -0.68 1.02 0 0 Z " fill="#E94149" transform="translate(344,228)"/>
<path d="M0 0 C6.64615385 1.47692308 6.64615385 1.47692308 8.4375 4.125 C8.7159375 5.053125 8.7159375 5.053125 9 6 C9.99 6 10.98 6 12 6 C11.67 7.65 11.34 9.3 11 11 C6.86378916 7.6189962 3.18683431 4.33409466 0 0 Z " fill="#E9252E" transform="translate(441,278)"/>
<path d="M0 0 C0 3.52100905 -0.58328868 4.10031314 -2.8125 6.6875 C-3.59560547 7.62142578 -3.59560547 7.62142578 -4.39453125 8.57421875 C-6 10 -6 10 -9 10 C-9.66 11.65 -10.32 13.3 -11 15 C-12.32 14.67 -13.64 14.34 -15 14 C-12.12555907 10.96586791 -9.70858653 8.85429327 -6 7 C-5.67 6.01 -5.34 5.02 -5 4 C-3.37667033 2.61423077 -1.71275535 1.27358732 0 0 Z " fill="#E5161E" transform="translate(454,263)"/>
<path d="M0 0 C0.66 0.33 1.32 0.66 2 1 C1 4 1 4 -1 7 C-2.32 6.67 -3.64 6.34 -5 6 C-5.33 6.66 -5.66 7.32 -6 8 C-7.32 7.67 -8.64 7.34 -10 7 C-8.70982586 6.01886757 -7.41780894 5.04015801 -6.125 4.0625 C-5.04605469 3.24458984 -5.04605469 3.24458984 -3.9453125 2.41015625 C-2 1 -2 1 0 0 Z " fill="#DF363D" transform="translate(348,318)"/>
<path d="M0 0 C-0.5625 2.3125 -0.5625 2.3125 -2 5 C-4.27962623 6.34776978 -6.48087772 7.11364216 -9 8 C-9 7.34 -9 6.68 -9 6 C-9.66 5.67 -10.32 5.34 -11 5 C-9.54462432 4.16151196 -8.08559627 3.32936066 -6.625 2.5 C-5.81289062 2.0359375 -5.00078125 1.571875 -4.1640625 1.09375 C-2 0 -2 0 0 0 Z " fill="#E3333A" transform="translate(189,119)"/>
<path d="M0 0 C0.66 0.33 1.32 0.66 2 1 C1.34 1.66 0.68 2.32 0 3 C-0.99 3 -1.98 3 -3 3 C-2.67 4.32 -2.34 5.64 -2 7 C-4.31 7.66 -6.62 8.32 -9 9 C-9 8.34 -9 7.68 -9 7 C-9.99 6.67 -10.98 6.34 -12 6 C-10.04669132 4.96958487 -8.08718472 3.9509107 -6.125 2.9375 C-5.03445312 2.36902344 -3.94390625 1.80054688 -2.8203125 1.21484375 C-1.42425781 0.61349609 -1.42425781 0.61349609 0 0 Z " fill="#DF3B42" transform="translate(233,278)"/>
<path d="M0 0 C0.66 0 1.32 0 2 0 C3.32 2.31 4.64 4.62 6 7 C5.01 7.33 4.02 7.66 3 8 C2.34 8.66 1.68 9.32 1 10 C1 9.01 1 8.02 1 7 C0.34 7 -0.32 7 -1 7 C-0.67 4.69 -0.34 2.38 0 0 Z " fill="#DF333A" transform="translate(146,349)"/>
<path d="M0 0 C0.33 0 0.66 0 1 0 C0.45018084 6.04801071 -0.90429574 11.30601106 -3 17 C-4.65770135 14.46539866 -5.0461239 13.32194482 -4.609375 10.2734375 C-4.32578125 9.31695312 -4.0421875 8.36046875 -3.75 7.375 C-3.34007812 5.93253906 -3.34007812 5.93253906 -2.921875 4.4609375 C-2 2 -2 2 0 0 Z " fill="#E02028" transform="translate(510,455)"/>
<path d="M0 0 C0.33 0.66 0.66 1.32 1 2 C-0.25 5.5625 -0.25 5.5625 -2 9 C-2.99 9.33 -3.98 9.66 -5 10 C-5 9.34 -5 8.68 -5 8 C-6.65 8.66 -8.3 9.32 -10 10 C-6.66666667 6.66666667 -3.33333333 3.33333333 0 0 Z " fill="#DE3C43" transform="translate(313,344)"/>
<path d="M0 0 C1.49341969 2.98683937 0.40648676 4.95160978 -0.4375 8.125 C-0.72496094 9.22070312 -1.01242188 10.31640625 -1.30859375 11.4453125 C-1.65083984 12.70988281 -1.65083984 12.70988281 -2 14 C-2.66 13.01 -3.32 12.02 -4 11 C-4.99 10.67 -5.98 10.34 -7 10 C-3.535 5.05 -3.535 5.05 0 0 Z " fill="#E74851" transform="translate(124,164)"/>
<path d="M0 0 C2.93200474 2.85276137 5.64315404 5.65079784 8 9 C5.69 8.67 3.38 8.34 1 8 C0.40267181 5.23735711 0 2.83967231 0 0 Z " fill="#DD363E" transform="translate(160,367)"/>
<path d="M0 0 C1.16945792 0.80847729 2.33550461 1.62189112 3.5 2.4375 C4.1496875 2.88996094 4.799375 3.34242188 5.46875 3.80859375 C6.22671875 4.39833984 6.22671875 4.39833984 7 5 C7 5.33 7 5.66 7 6 C0.375 6.125 0.375 6.125 -3 5 C-3.33 4.01 -3.66 3.02 -4 2 C-2.68 2.33 -1.36 2.66 0 3 C0 2.01 0 1.02 0 0 Z " fill="#DF353D" transform="translate(77,330)"/>
<path d="M0 0 C1.65 0 3.3 0 5 0 C5 1.98 5 3.96 5 6 C4.01 6 3.02 6 2 6 C1.67 7.32 1.34 8.64 1 10 C0.67 6.7 0.34 3.4 0 0 Z " fill="#E9343A" transform="translate(368,224)"/>
<path d="M0 0 C1.32 0.33 2.64 0.66 4 1 C5.26264601 5.29299643 4.62950412 7.87831311 3 12 C2.67 12 2.34 12 2 12 C0.40861915 7.82262526 -0.21278058 4.46839215 0 0 Z " fill="#E6353F" transform="translate(121,297)"/>
<path d="M0 0 C1.04449911 3.13349732 0.93423645 3.98968256 0 7 C-2.875 7.125 -2.875 7.125 -6 7 C-6.66 6.34 -7.32 5.68 -8 5 C-4.04 2.525 -4.04 2.525 0 0 Z " fill="#DF353D" transform="translate(202,296)"/>
<path d="M0 0 C2.9719385 1.12451727 5.33440687 2.22293791 8 4 C8 4.66 8 5.32 8 6 C4.50765756 6.09978121 1.40562852 5.77842938 -2 5 C-1.34 3.35 -0.68 1.7 0 0 Z " fill="#E13138" transform="translate(269,130)"/>
<path d="M0 0 C2.67927341 4.01891012 2.15601248 6.24161923 2 11 C2.66 11 3.32 11 4 11 C3.67 11.99 3.34 12.98 3 14 C-0.54719623 10.29857784 -0.68134851 6.93909814 -1 2 C-0.67 1.34 -0.34 0.68 0 0 Z " fill="#E1202A" transform="translate(3,457)"/>
<path d="M0 0 C-0.0625 1.8125 -0.0625 1.8125 -1 4 C-4.5625 5.75 -4.5625 5.75 -8 7 C-8 6.01 -8 5.02 -8 4 C-2.74285714 0 -2.74285714 0 0 0 Z " fill="#EE3A41" transform="translate(36,8)"/>
<path d="M0 0 C3.3 0.33 6.6 0.66 10 1 C10.66 2.98 11.32 4.96 12 7 C8.04 5.02 4.08 3.04 0 1 C0 0.67 0 0.34 0 0 Z " fill="#E8353D" transform="translate(413,261)"/>
<path d="M0 0 C1.48831242 0.00667405 2.97660807 0.01863442 4.46484375 0.03515625 C5.22345703 0.03966797 5.98207031 0.04417969 6.76367188 0.04882812 C8.64326246 0.06064945 10.52281274 0.07858547 12.40234375 0.09765625 C12.40234375 0.42765625 12.40234375 0.75765625 12.40234375 1.09765625 C9.94545365 1.48621551 7.48792542 1.85895713 5.02734375 2.22265625 C3.97933594 2.39087891 3.97933594 2.39087891 2.91015625 2.5625 C1.08446461 2.82582091 -0.75753245 2.96946785 -2.59765625 3.09765625 C-3.25765625 2.43765625 -3.91765625 1.77765625 -4.59765625 1.09765625 C-3.59765625 0.09765625 -3.59765625 0.09765625 0 0 Z " fill="#FBEFEE" transform="translate(47.59765625,-0.09765625)"/>
<path d="M0 0 C0 0.66 0 1.32 0 2 C-1.62626404 3.38232443 -3.2925002 4.71937515 -5 6 C-6.32 5.34 -7.64 4.68 -9 4 C-9 3.34 -9 2.68 -9 2 C-2.25 0 -2.25 0 0 0 Z " fill="#DB1E26" transform="translate(243,401)"/>
<path d="M0 0 C0.66 0.66 1.32 1.32 2 2 C2.33 1.34 2.66 0.68 3 0 C3.99 0.33 4.98 0.66 6 1 C3.6875 3.5 3.6875 3.5 1 6 C0.01 6 -0.98 6 -2 6 C-2 4.35 -2 2.7 -2 1 C-1.34 0.67 -0.68 0.34 0 0 Z " fill="#E63740" transform="translate(251,363)"/>
<path d="M0 0 C3.27742098 3.10026309 5.93104837 5.97098894 8 10 C8 10.66 8 11.32 8 12 C7.01 11.67 6.02 11.34 5 11 C5 10.34 5 9.68 5 9 C4.34 9 3.68 9 3 9 C2.01 6.03 1.02 3.06 0 0 Z " fill="#EF4148" transform="translate(496,24)"/>
<path d="M0 0 C-1.32 0.33 -2.64 0.66 -4 1 C-4 1.66 -4 2.32 -4 3 C-7.63 3.33 -11.26 3.66 -15 4 C-11.3460697 -1.5678938 -5.94143168 -0.36877852 0 0 Z " fill="#EE434D" transform="translate(300,235)"/>
<path d="M0 0 C2.97 1.98 2.97 1.98 6 4 C5.34 5.32 4.68 6.64 4 8 C4.66 8 5.32 8 6 8 C5.67 8.99 5.34 9.98 5 11 C5 10.34 5 9.68 5 9 C3.68 8.67 2.36 8.34 1 8 C0.67 5.36 0.34 2.72 0 0 Z " fill="#E3313B" transform="translate(296,149)"/>
<path d="M0 0 C0 3 0 3 -1.4375 4.5 C-1.953125 4.995 -2.46875 5.49 -3 6 C-3.33 6.99 -3.66 7.98 -4 9 C-7.5625 10.1875 -7.5625 10.1875 -11 11 C-7.33333333 7.33333333 -3.66666667 3.66666667 0 0 Z " fill="#D91F28" transform="translate(284,371)"/>
<path d="M0 0 C0.66 1.32 1.32 2.64 2 4 C2.99 4.33 3.98 4.66 5 5 C4.67 5.99 4.34 6.98 4 8 C1.4375 9.1875 1.4375 9.1875 -1 10 C-0.67 6.7 -0.34 3.4 0 0 Z " fill="#F13D46" transform="translate(2,48)"/>
<path d="M0 0 C0.33 0.66 0.66 1.32 1 2 C-1.97 2.66 -4.94 3.32 -8 4 C-8.66 3.01 -9.32 2.02 -10 1 C-6.78548731 -0.60725635 -3.56387464 -0.05748185 0 0 Z " fill="#E12A32" transform="translate(466,507)"/>
<path d="M0 0 C-0.99 0.495 -0.99 0.495 -2 1 C-2 1.66 -2 2.32 -2 3 C-4.97 3 -7.94 3 -11 3 C-6.7849044 -0.23157329 -5.27490657 -1.24931998 0 0 Z " fill="#D81820" transform="translate(259,396)"/>
<path d="M0 0 C1.65 0.99 3.3 1.98 5 3 C4.01 4.32 3.02 5.64 2 7 C2 6.34 2 5.68 2 5 C0.68 4.67 -0.64 4.34 -2 4 C-1.34 2.68 -0.68 1.36 0 0 Z " fill="#D91B24" transform="translate(187,392)"/>
<path d="M0 0 C1.14926266 0.95421808 2.29430541 1.91352045 3.4375 2.875 C4.07558594 3.40867187 4.71367187 3.94234375 5.37109375 4.4921875 C7 6 7 6 8 8 C5.07120629 7.37240135 2.63904371 6.41377341 0 5 C0 3.35 0 1.7 0 0 Z " fill="#DE323B" transform="translate(168,376)"/>
<path d="M0 0 C2.5 0.875 2.5 0.875 3.8125 3.4375 C4.1528125 4.6440625 4.1528125 4.6440625 4.5 5.875 C0.72454612 4.78431332 -1.97043472 3.9666909 -4.5 0.875 C-2.5 -0.125 -2.5 -0.125 0 0 Z " fill="#DD252D" transform="translate(35.5,500.125)"/>
<path d="M0 0 C0.33 0 0.66 0 1 0 C1.10815225 1.76949095 1.18566083 3.54087487 1.25 5.3125 C1.29640625 6.29863281 1.3428125 7.28476562 1.390625 8.30078125 C1 11 1 11 -3 14 C-2.01 9.38 -1.02 4.76 0 0 Z " fill="#FCECEB" transform="translate(511,454)"/>
<path d="M0 0 C0.66 0 1.32 0 2 0 C2 0.66 2 1.32 2 2 C3.32 2.33 4.64 2.66 6 3 C6 3.66 6 4.32 6 5 C6.66 5.33 7.32 5.66 8 6 C7.01 7.485 7.01 7.485 6 9 C4.99712471 7.68969568 3.99777175 6.37669473 3 5.0625 C2.443125 4.33160156 1.88625 3.60070312 1.3125 2.84765625 C0 1 0 1 0 0 Z " fill="#E83A41" transform="translate(172,343)"/>
<path d="M0 0 C0.598125 0.763125 1.19625 1.52625 1.8125 2.3125 C3.84004112 4.91335259 3.84004112 4.91335259 5.75 6.6875 C7 8 7 8 7 10 C5.1875 9.8125 5.1875 9.8125 3 9 C0.46629412 5.65188866 0 4.29875783 0 0 Z " fill="#DE3F47" transform="translate(69,320)"/>
<path d="M0 0 C2.31 0.66 4.62 1.32 7 2 C6.34 3.32 5.68 4.64 5 6 C4.01 6 3.02 6 2 6 C1.34 4.02 0.68 2.04 0 0 Z " fill="#D81922" transform="translate(201,400)"/>
<path d="M0 0 C0.66 0 1.32 0 2 0 C3.625 2 3.625 2 5 4 C4.01 4.33 3.02 4.66 2 5 C1.34 5.66 0.68 6.32 0 7 C0 6.01 0 5.02 0 4 C-0.66 4 -1.32 4 -2 4 C-1.34 2.68 -0.68 1.36 0 0 Z " fill="#DE363C" transform="translate(319,339)"/>
<path d="M0 0 C2 3.75 2 3.75 2 6 C-0.31 6.33 -2.62 6.66 -5 7 C-3.35 4.69 -1.7 2.38 0 0 Z " fill="#D91C22" transform="translate(453,327)"/>
<path d="M0 0 C0.66 0 1.32 0 2 0 C2 0.66 2 1.32 2 2 C2.99 2 3.98 2 5 2 C5.33 3.32 5.66 4.64 6 6 C5.01 6.66 4.02 7.32 3 8 C0 2.25 0 2.25 0 0 Z " fill="#EA3B40" transform="translate(352,182)"/>
<path d="M0 0 C0.66 0.33 1.32 0.66 2 1 C2 2.32 2 3.64 2 5 C1.01 5.66 0.02 6.32 -1 7 C-1.33 5.02 -1.66 3.04 -2 1 C-1.34 0.67 -0.68 0.34 0 0 Z " fill="#E9363E" transform="translate(315,307)"/>
<path d="M0 0 C0.66 0.33 1.32 0.66 2 1 C1.01 3.31 0.02 5.62 -1 8 C-1.99 8 -2.98 8 -4 8 C-2.87548273 5.0280615 -1.77706209 2.66559313 0 0 Z " fill="#ED373F" transform="translate(11,30)"/>
<path d="M0 0 C0 3.38023517 -0.87455622 5.83468937 -2 9 C-2.33 8.34 -2.66 7.68 -3 7 C-3.66 7 -4.32 7 -5 7 C-5.33 7.66 -5.66 8.32 -6 9 C-6 6 -6 6 -4.6875 4.39453125 C-4.130625 3.87246094 -3.57375 3.35039062 -3 2.8125 C-2.443125 2.28269531 -1.88625 1.75289062 -1.3125 1.20703125 C-0.6628125 0.60955078 -0.6628125 0.60955078 0 0 Z " fill="#F1373F" transform="translate(25,14)"/>
<path d="M0 0 C3.057952 1.73559438 5.63379989 3.38472619 8 6 C5.23723823 5.47731534 2.6739124 4.89130413 0 4 C0 2.68 0 1.36 0 0 Z " fill="#DE383E" transform="translate(177,385)"/>
<path d="M0 0 C2.64752004 2.57784846 4.94432065 4.91648098 7 8 C4 8 4 8 2.375 6.8125 C0.68587944 4.58593199 0.37047118 2.74148672 0 0 Z " fill="#DF3B44" transform="translate(152,357)"/>
<path d="M0 0 C0.33 0.66 0.66 1.32 1 2 C1.66 2.33 2.32 2.66 3 3 C0.36 4.98 -2.28 6.96 -5 9 C-4.01360177 5.05440706 -3.74165469 4.51318346 -1 2 C-0.67 1.34 -0.34 0.68 0 0 Z " fill="#E93741" transform="translate(274,344)"/>
<path d="M0 0 C0.66 0.33 1.32 0.66 2 1 C0.9375 2.9375 0.9375 2.9375 -1 5 C-4.6875 5.75 -4.6875 5.75 -8 6 C-5.38485683 3.87961365 -2.80362384 1.86908256 0 0 Z " fill="#E13C44" transform="translate(173,315)"/>
<path d="M0 0 C2.12508244 3.18762365 2.5020163 5.26512223 3 9 C1.68 9.33 0.36 9.66 -1 10 C-0.67 6.7 -0.34 3.4 0 0 Z " fill="#E5434D" transform="translate(126,304)"/>
<path d="M0 0 C2.31 0.33 4.62 0.66 7 1 C7 1.99 7 2.98 7 4 C4 4 4 4 1.8125 2 C1.214375 1.34 0.61625 0.68 0 0 Z " fill="#E93840" transform="translate(389,307)"/>
<path d="M0 0 C0.33 0 0.66 0 1 0 C1 1.65 1 3.3 1 5 C0.01 5.495 0.01 5.495 -1 6 C-1 5.34 -1 4.68 -1 4 C-1.66 4 -2.32 4 -3 4 C-3.33 4.66 -3.66 5.32 -4 6 C-4.33 4.35 -4.66 2.7 -5 1 C-3.68 1 -2.36 1 -1 1 C-0.67 0.67 -0.34 0.34 0 0 Z " fill="#E41520" transform="translate(462,296)"/>
<path d="M0 0 C0.99 0.33 1.98 0.66 3 1 C2.67 1.99 2.34 2.98 2 4 C-0.5625 5.1875 -0.5625 5.1875 -3 6 C-3 5.01 -3 4.02 -3 3 C-2.01 2.67 -1.02 2.34 0 2 C0 1.34 0 0.68 0 0 Z " fill="#E83940" transform="translate(176,281)"/>
<path d="M0 0 C0 0.99 0 1.98 0 3 C-2.64 3 -5.28 3 -8 3 C-8 2.34 -8 1.68 -8 1 C-5.07175348 0.02391783 -3.04386724 -0.08226668 0 0 Z " fill="#DF3A3F" transform="translate(280,264)"/>
<path d="M0 0 C1.46726798 3.81489674 0.43336419 6.29011622 -1 10 C-1.66 10 -2.32 10 -3 10 C-2.49287967 6.28111761 -1.88391785 3.26545761 0 0 Z " fill="#E33C42" transform="translate(101,206)"/>
<path d="M0 0 C0.33 0.66 0.66 1.32 1 2 C1.66 2 2.32 2 3 2 C3 3.32 3 4.64 3 6 C2.01 6 1.02 6 0 6 C-0.33 7.32 -0.66 8.64 -1 10 C-0.67 6.7 -0.34 3.4 0 0 Z " fill="#EB3E48" transform="translate(116,190)"/>
<path d="M0 0 C0.66 1.32 1.32 2.64 2 4 C1.01 5.485 1.01 5.485 0 7 C-0.66 7 -1.32 7 -2 7 C-2 7.99 -2 8.98 -2 10 C-2.66 9.67 -3.32 9.34 -4 9 C-2.68 6.03 -1.36 3.06 0 0 Z " fill="#E74149" transform="translate(109,188)"/>
<path d="M0 0 C1.32 1.32 2.64 2.64 4 4 C3.67 4.66 3.34 5.32 3 6 C2.01 5.67 1.02 5.34 0 5 C-0.33 5.66 -0.66 6.32 -1 7 C-2 4 -2 4 -1.0625 1.8125 C-0.5365625 0.9153125 -0.5365625 0.9153125 0 0 Z " fill="#E3353F" transform="translate(325,184)"/>
<path d="M0 0 C1.32 0 2.64 0 4 0 C4.33 1.32 4.66 2.64 5 4 C5.66 4 6.32 4 7 4 C6.34 5.32 5.68 6.64 5 8 C2.525 4.04 2.525 4.04 0 0 Z " fill="#ED3A43" transform="translate(336,157)"/>
<path d="M0 0 C2.97 0.33 5.94 0.66 9 1 C6.08235 2.9451 4.37462715 3.45276317 1 4 C0.67 2.68 0.34 1.36 0 0 Z " fill="#F24249" transform="translate(455,1)"/>
<path d="M0 0 C0.33 0.99 0.66 1.98 1 3 C-0.258125 2.87625 -1.51625 2.7525 -2.8125 2.625 C-3.87404297 2.52058594 -3.87404297 2.52058594 -4.95703125 2.4140625 C-7 2 -7 2 -10 0 C-6.42355152 -1.2380014 -3.66305234 -0.74926071 0 0 Z " fill="#E4323A" transform="translate(55,508)"/>
<path d="M0 0 C1.32 0.33 2.64 0.66 4 1 C3.67 1.66 3.34 2.32 3 3 C4.32 3.66 5.64 4.32 7 5 C6.34 5.66 5.68 6.32 5 7 C3.29115995 5.37660195 1.62553283 3.70680947 0 2 C0 1.34 0 0.68 0 0 Z " fill="#E93540" transform="translate(184,357)"/>
<path d="M0 0 C0.66 0 1.32 0 2 0 C2.66 1.65 3.32 3.3 4 5 C1 5 1 5 -0.6875 3.5 C-1.120625 3.005 -1.55375 2.51 -2 2 C-1.34 1.34 -0.68 0.68 0 0 Z " fill="#DF444D" transform="translate(137,334)"/>
<path d="M0 0 C1.98 0.495 1.98 0.495 4 1 C4 1.66 4 2.32 4 3 C4.66 3 5.32 3 6 3 C6 3.66 6 4.32 6 5 C3.69 4.34 1.38 3.68 -1 3 C-0.67 2.01 -0.34 1.02 0 0 Z " fill="#E92B32" transform="translate(404,314)"/>
<path d="M0 0 C0 3 0 3 -1 6 C-2.98 6 -4.96 6 -7 6 C-4.74259377 3.66475218 -2.7194239 1.81294927 0 0 Z " fill="#E03F46" transform="translate(191,303)"/>
<path d="M0 0 C0 3 0 3 -1.3125 4.38671875 C-2.875 5.59114583 -4.4375 6.79557292 -6 8 C-6 7.34 -6 6.68 -6 6 C-6.66 5.67 -7.32 5.34 -8 5 C-4.04 2.525 -4.04 2.525 0 0 Z " fill="#E03C44" transform="translate(214,288)"/>
<path d="M0 0 C1.65 0.33 3.3 0.66 5 1 C2.31158141 3.25245881 0.35358125 4.88213958 -3 6 C-2 3 -2 3 0 0 Z " fill="#E83B45" transform="translate(342,290)"/>
<path d="M0 0 C1.98 0.495 1.98 0.495 4 1 C2.625 3.5 2.625 3.5 1 6 C0.34 6 -0.32 6 -1 6 C-0.67 4.02 -0.34 2.04 0 0 Z " fill="#E43C41" transform="translate(96,218)"/>
<path d="M0 0 C1.98 0.495 1.98 0.495 4 1 C3.67 2.65 3.34 4.3 3 6 C2.34 6 1.68 6 1 6 C-0.0625 4.125 -0.0625 4.125 -1 2 C-0.67 1.34 -0.34 0.68 0 0 Z " fill="#E83A44" transform="translate(155,151)"/>
<path d="M0 0 C0.78375 0.04125 1.5675 0.0825 2.375 0.125 C0.725 2.105 -0.925 4.085 -2.625 6.125 C-3.285 4.805 -3.945 3.485 -4.625 2.125 C-2.625 0.125 -2.625 0.125 0 0 Z " fill="#EC3840" transform="translate(128.625,121.875)"/>
<path d="M0 0 C-0.66 1.98 -1.32 3.96 -2 6 C-2.99 5.34 -3.98 4.68 -5 4 C-5 3.01 -5 2.02 -5 1 C-2 0 -2 0 0 0 Z " fill="#E0464C" transform="translate(388,298)"/>
<path d="M0 0 C1.67542976 0.28604898 3.34385343 0.61781233 5 1 C5 1.66 5 2.32 5 3 C3.35 3.66 1.7 4.32 0 5 C-0.5625 3.0625 -0.5625 3.0625 -1 1 C-0.67 0.67 -0.34 0.34 0 0 Z " fill="#E94349" transform="translate(150,297)"/>
<path d="M0 0 C0.33 0.66 0.66 1.32 1 2 C1.99 2 2.98 2 4 2 C4.33 3.65 4.66 5.3 5 7 C2.69 5.35 0.38 3.7 -2 2 C-1.34 1.34 -0.68 0.68 0 0 Z " fill="#EF3F46" transform="translate(304,121)"/>
<path d="M0 0 C0.66 0.99 1.32 1.98 2 3 C1.34 3 0.68 3 0 3 C0 4.98 0 6.96 0 9 C-0.99 9 -1.98 9 -3 9 C-2.01 6.03 -1.02 3.06 0 0 Z " fill="#F0444C" transform="translate(6,38)"/>
</svg>
